<?xml version="1.0" encoding="utf-8"?>
<!-- Generator: Adobe Illustrator 25.2.0, SVG Export Plug-In . SVG Version: 6.00 Build 0)  -->
<svg version="1.1" id="Warstwa_1" xmlns="http://www.w3.org/2000/svg" xmlns:xlink="http://www.w3.org/1999/xlink" x="0px" y="0px"
	 viewBox="0 0 173.2 200" style="enable-background:new 0 0 173.2 200;" xml:space="preserve">
<style type="text/css">
	.st0{fill:none;}
	.st1{fill:#C3944B;}
</style>
<g id="Group_442" transform="translate(-38.332 -79.384)">
	<path class="st0" d="M192.1,123.3c0.4,0.1,0.8,0.2,1.1,0.4C192.8,123.6,192.4,123.4,192.1,123.3z"/>
	<path class="st0" d="M193.2,123.7C193.2,123.7,193.2,123.7,193.2,123.7C193.2,123.7,193.2,123.7,193.2,123.7z"/>
	<path class="st0" d="M194.3,124.1L194.3,124.1L194.3,124.1c-0.4-0.1-0.7-0.3-1.1-0.4C193.6,123.8,193.9,124,194.3,124.1z"/>
	<path class="st0" d="M205.3,133.2C205.3,133.2,205.3,133.2,205.3,133.2C205.3,133.2,205.3,133.2,205.3,133.2c-0.5-0.7-1-1.3-1.5-2
		C204.3,131.8,204.8,132.5,205.3,133.2z"/>
	<path class="st0" d="M177.3,164.7c0.5,0.4,1,0.6,1.6,0.9C178.4,165.4,177.8,165.1,177.3,164.7C177.3,164.7,177.3,164.7,177.3,164.7
		z"/>
	<path class="st0" d="M180.7,166.1c0.4,0.1,0.8,0.1,1.2,0.2C181.6,166.2,181.1,166.2,180.7,166.1z"/>
	<path class="st0" d="M196.3,163.8C196.3,163.8,196.3,163.8,196.3,163.8c-0.4,0.2-0.8,0.3-1.1,0.4C195.6,164.1,196,164,196.3,163.8z
		"/>
	<path class="st0" d="M160.1,139.3c0.3,0.3,0.5,0.5,0.8,0.8C160.6,139.8,160.3,139.6,160.1,139.3c-0.7-0.7-1.5-1.3-2.3-1.9
		C158.6,137.9,159.4,138.6,160.1,139.3z"/>
	<path class="st0" d="M161.6,141c0.5,0.7,0.9,1.4,1.2,2.1l0,0C162.5,142.4,162,141.7,161.6,141C161.5,141,161.5,141,161.6,141
		c-0.1-0.1-0.1-0.2-0.2-0.2C161.4,140.8,161.5,140.9,161.6,141C161.5,140.9,161.5,141,161.6,141z"/>
	<polygon class="st0" points="165,141.8 162.8,143.1 165,141.8 	"/>
	<path class="st0" d="M167.4,148.8c0.2,1.2,0.5,2.4,0.9,3.5C167.9,151.2,167.6,150,167.4,148.8L167.4,148.8z"/>
	<path class="st0" d="M169,148.5c0,0.4,0.1,0.7,0.2,1.1C169.1,149.2,169,148.8,169,148.5z"/>
	<path class="st0" d="M172.2,133.9c0.4-0.7,0.8-1.3,1.2-2C173,132.6,172.6,133.2,172.2,133.9z"/>
	<path class="st0" d="M175.8,128.9c-0.6,0.7-1.2,1.3-1.7,2c-0.2,0.3-0.4,0.6-0.7,1c0.2-0.3,0.4-0.6,0.7-1
		C174.6,130.2,175.2,129.6,175.8,128.9C175.7,128.9,175.8,128.9,175.8,128.9z"/>
	<path class="st0" d="M177.2,149.3c-0.2-1.1-0.2-2.3-0.2-3.4c0.1-1.6,0.3-3.2,0.8-4.7c-0.5,1.5-0.8,3.1-0.8,4.7
		C177,147,177,148.1,177.2,149.3z"/>
	<path id="Path_1090" class="st0" d="M72.4,190.2L58.9,199l0.9,16l14.3,7.3l13.5-8.8l-0.9-16L72.4,190.2z"/>
	<path id="Path_1091" class="st0" d="M70.6,172.3c-2.7-0.1-5.3,0.1-7.9,0.7c-0.1,0.3-0.1,0.6-0.2,0.8l7.9,4.1
		C70.4,176,70.5,174.1,70.6,172.3z"/>
	<path id="Path_1092" class="st0" d="M82.9,227.5c-11.7,5.4-25.5,0.2-30.9-11.5c-5.4-11.7-0.2-25.5,11.5-30.9
		c11.7-5.4,25.5-0.2,30.9,11.5c0.8,1.7,1.4,3.5,1.7,5.4c0.5,2.4,1.9,4.5,4,5.8c0.3,0.2,0.6,0.3,0.9,0.5l5.9-11.6L70.8,178l-0.3,0
		v-0.2l-7.9-4.1c-0.3,1.7-0.4,2.8-0.4,2.8s0.3,0.5-2.9,1.9l-19.1,37.6l45.2,23.3l5.9-11.6l-0.3-0.2
		C88.3,226.4,85.4,226.3,82.9,227.5z"/>
	<path class="st1" d="M209.7,135.8c-4.6-12.9-21.6-18.6-29.2-15.5c-8.8,3.2-13.2,4.4-18.6,3.3l0,0.1c2.3,0.6,4.6,1.3,6.8,2.1h0
		c0,0,0,0,0,0l0,0h0c0.8,0.3,1.5,0.6,2.3,1c-0.7-0.3-1.5-0.7-2.3-1h0c-0.2,0-0.5,0.1-0.7,0.1c-0.1,0-0.1,0-0.2,0
		c-0.5,0-1,0.1-1.5,0.1c-1,0-2.1,0-3.1-0.1c-0.7-0.1-1.4-0.2-2-0.3l0.7-1.9c-8.2-2.1-16.6-3.1-25.1-2.7c-32.3,1.3-47.2,18-46.5,37.4
		c1.7,42.2,67.2,24.9,68.1,46.2c0.3,7-5.8,12.4-21.4,13.1c-12.6,0.4-25.1-2.8-36-9.2l-0.1,0.2l-9.7,19.1c10.5,7.2,28.6,11.8,46.5,11
		c32.5-1.3,47.6-18.2,46.8-37.2c-1.7-41.7-67.2-24.6-68.1-45.5c-0.3-7.1,5.5-13.2,21.1-13.9c5.9-0.2,11.8,0.5,17.5,2.2v0h0l0-0.2
		l0,0l0.7-3.7l1-2.8l0,0l-1,2.8l-0.7,3.7c0.1,0.1,0.2,0.2,0.4,0.3c0,0,0,0,0,0c1.8,1.2,3.4,2.7,4.8,4.3c1.7,2,3,4.4,3.8,6.9
		c0.2,0.5,0.3,1,0.5,1.5v0.1c0.9,2.1,2,4.1,3.4,6c1.3,1.8,2.9,3.5,4.7,5c7.5,5.2,22.5,4.8,31.8-5.1c0.3-0.3,0.3-0.8,0-1.2
		c-0.1-0.1-0.3-0.2-0.4-0.2l-18.9-3.5c0,0-5.7-2.6-4.2-12.2c0.4-5.2,3.5-9.9,8.1-12.3l19.8,3.4c0.4,0.1,0.9-0.2,1-0.7
		C209.8,136,209.7,135.9,209.7,135.8z M196.4,163.8c-0.5,0.4-1,0.7-1.6,1C195.3,164.5,195.8,164.2,196.4,163.8
		c-0.4,0.2-0.8,0.3-1.2,0.4C195.6,164.1,196,164,196.4,163.8C196.3,163.8,196.3,163.8,196.4,163.8
		C196.3,163.8,196.3,163.8,196.4,163.8z M165,141.8l-2.2,1.3l0,0c-0.3-0.8-0.8-1.5-1.2-2.1c0,0-0.1-0.1-0.1-0.1c0,0,0-0.1-0.1-0.1
		c0,0,0.1,0,0.1,0.1c0,0,0.1,0.1,0.1,0.1c0.5,0.7,0.9,1.4,1.2,2.1L165,141.8L165,141.8z M160.1,139.3c0.3,0.3,0.5,0.5,0.8,0.8
		C160.6,139.8,160.3,139.6,160.1,139.3c-0.7-0.7-1.5-1.3-2.3-1.9C158.6,137.9,159.4,138.6,160.1,139.3z M174.2,127.1
		c-0.2,0.2-0.4,0.5-0.6,0.8h0l-0.3-0.1c0.2-0.2,0.5-0.3,0.7-0.5C174,127.2,174.1,127.2,174.2,127.1
		C174.1,127.1,174.1,127.2,174.2,127.1C174.1,127.2,174.2,127.1,174.2,127.1z M178.9,165.6c-0.6-0.2-1.1-0.5-1.6-0.9c0,0,0,0,0,0
		c0,0,0,0,0,0c0.8,0.3,1.5,0.5,2.3,0.6c-0.8-0.1-1.6-0.3-2.3-0.6C177.8,165.1,178.4,165.4,178.9,165.6z M172.8,129.9L172.8,129.9
		c-0.3,0.3-0.5,0.6-0.8,1C172.2,130.6,172.5,130.2,172.8,129.9z M173.4,131.9c-0.4,0.6-0.8,1.3-1.2,2
		C172.6,133.2,173,132.6,173.4,131.9z M169.2,149.5L169.2,149.5c0.3,2.4,0.8,4.8,1.7,7.1C170,154.4,169.4,152,169.2,149.5
		c0-0.4-0.2-0.7-0.2-1.1C169,148.8,169.1,149.2,169.2,149.5z M174.1,130.9c-0.2,0.3-0.4,0.6-0.7,1
		C173.6,131.6,173.8,131.3,174.1,130.9c0.5-0.7,1.1-1.4,1.7-2c0,0,0,0,0,0C175.2,129.6,174.6,130.2,174.1,130.9z M177.8,152
		c-0.2-1.8-0.2-3.5,0-5.3c0-0.3,0-0.5,0.1-0.8c0-0.3,0.1-0.5,0.1-0.8c0-0.1,0-0.2,0.1-0.4c0,0.1,0,0.2,0,0.4c0,0.2-0.1,0.5-0.1,0.8
		c0,0.3-0.1,0.6-0.1,0.8C177.6,148.5,177.6,150.3,177.8,152z M178.8,145.5c-0.1,0.6-0.1,1.2-0.2,1.7
		C178.7,146.7,178.7,146.1,178.8,145.5c0.1-0.5,0.2-1.1,0.3-1.6C179,144.4,178.9,145,178.8,145.5z M177.9,141.2
		c-0.5,1.5-0.8,3.1-0.8,4.7c-0.1,1.2,0,2.3,0.2,3.5c-0.2-1.1-0.2-2.3-0.2-3.4C177.1,144.3,177.4,142.7,177.9,141.2z M166.3,140.1
		c0.2-0.6,0.3-1.2,0.5-1.7C166.6,138.9,166.5,139.5,166.3,140.1L166.3,140.1L166.3,140.1z M167.4,148.8l0-0.1
		c-0.1-0.9-0.2-1.8-0.3-2.7c0,0.9,0.1,1.8,0.3,2.7L167.4,148.8L167.4,148.8L167.4,148.8c-0.2-0.1-0.4-0.2-0.6-0.3
		C167,148.6,167.2,148.7,167.4,148.8z M167.4,148.8c0.2,1.2,0.5,2.4,0.9,3.5C167.9,151.2,167.6,150,167.4,148.8L167.4,148.8z
		 M182,166.3c-0.4-0.1-0.8-0.1-1.2-0.2C181.1,166.2,181.6,166.2,182,166.3z M184.4,132.5c0.6-0.4,1.3-0.8,2-1.2
		C185.7,131.7,185,132,184.4,132.5z M186.4,131.3c0.2-0.1,0.5-0.2,0.7-0.3c0,0,0,0,0,0C186.8,131.1,186.6,131.2,186.4,131.3z
		 M199.1,128.9L199.1,128.9c0.1,0,0.1,0.1,0.1,0.2C199.2,129,199.2,129,199.1,128.9z M199.3,129.1c0,0.1,0.1,0.1,0.1,0.2
		C199.3,129.2,199.3,129.2,199.3,129.1z M199.4,129.3c0,0.1,0.1,0.3,0,0.4C199.4,129.6,199.4,129.5,199.4,129.3z M199.4,129.8
		c0,0.1,0,0.1,0,0.2C199.4,129.9,199.4,129.9,199.4,129.8z M198.9,130.6c0,0-0.1,0-0.1,0c0,0,0,0,0,0
		C198.8,130.6,198.8,130.6,198.9,130.6z M188,122.9c1.9,0.5,3.8,1.2,5.5,2.1C191.7,124.1,189.9,123.4,188,122.9z M203.8,131.2
		c0.5,0.6,1,1.3,1.5,2c0,0,0,0,0,0c0,0,0,0,0,0c0,0,0,0,0,0C204.8,132.5,204.3,131.8,203.8,131.2z M202.1,129.4L202.1,129.4
		c0.2,0.2,0.3,0.3,0.5,0.5C202.4,129.7,202.2,129.5,202.1,129.4z M194.3,124.1c-0.4-0.2-0.7-0.3-1.1-0.4
		C193.6,123.8,193.9,124,194.3,124.1L194.3,124.1L194.3,124.1z M192.1,123.3c0.4,0.1,0.8,0.2,1.1,0.4
		C192.8,123.6,192.4,123.4,192.1,123.3z M181.2,122.2L181.2,122.2L181.2,122.2c0.1,0,0.1,0,0.1,0L181.2,122.2c-1,0.4-2,0.8-3,1.1
		C179.2,123,180.2,122.6,181.2,122.2z M166.1,148.2C166.1,148.2,166.1,148.2,166.1,148.2C166.1,148.2,166.1,148.2,166.1,148.2
		L166.1,148.2c0.2,0.1,0.4,0.2,0.7,0.3C166.5,148.4,166.3,148.3,166.1,148.2L166.1,148.2L166.1,148.2z M166.8,152.1
		c-0.1-0.3-0.2-0.6-0.2-1c-0.2-0.6-0.3-1.2-0.4-1.8c0.1,0.6,0.2,1.2,0.4,1.8C166.7,151.4,166.8,151.8,166.8,152.1
		c0.9,2.9,2.2,5.6,3.9,8C169,157.6,167.7,154.9,166.8,152.1z M195.8,165.3c-0.6,0.3-1.3,0.6-2,0.9
		C194.5,165.9,195.2,165.6,195.8,165.3c0.9-0.5,1.6-1,2-1.5C197.4,164.3,196.7,164.8,195.8,165.3z M197.8,163.8
		c0.1-0.1,0.2-0.2,0.2-0.4C197.9,163.5,197.9,163.6,197.8,163.8z M197.8,162.5L197.8,162.5l-13.3-2.4l0,0L197.8,162.5z M181.7,137.4
		c0.4-0.6,0.8-1.1,1.2-1.7C182.5,136.3,182.1,136.8,181.7,137.4z M188.2,131.6c-0.4,0.2-0.8,0.4-1.2,0.7
		C187.4,132,187.8,131.7,188.2,131.6C188.2,131.5,188.3,131.5,188.2,131.6C188.3,131.5,188.2,131.5,188.2,131.6z M206.8,134.4
		l-17.5-3c-0.1,0-0.2,0-0.3,0c0.1,0,0.2,0,0.3,0L206.8,134.4c-2.6-4.8-6.8-8.5-11.8-10.6c-1-0.5-2.1-1-3.2-1.3
		c-0.7-0.2-1.5-0.4-2.3-0.5c0.8,0.1,1.5,0.3,2.3,0.5c1.1,0.3,2.2,0.8,3.3,1.3C200.1,125.9,204.2,129.6,206.8,134.4L206.8,134.4
		C206.8,134.4,206.8,134.4,206.8,134.4z"/>
	<polygon class="st1" points="155.1,144 155,144.1 155,144.1 155,144 	"/>
	<path id="Path_1094" class="st1" d="M100.9,208.5l0.1-0.2c-0.3-0.2-0.6-0.3-0.9-0.5C100.4,208,100.6,208.3,100.9,208.5z"/>
	<path class="st1" d="M155.4,144.3c-0.1,0-0.3-0.1-0.4-0.1h0l0-0.2l0,0C155.2,144.1,155.3,144.2,155.4,144.3z"/>
	<path class="st1" d="M174.2,127.1C174.1,127.1,174.1,127.2,174.2,127.1c-0.3,0.3-0.4,0.5-0.6,0.8l0,0l-0.3-0.1
		c0.2-0.2,0.5-0.3,0.7-0.5C174,127.2,174.1,127.2,174.2,127.1z"/>
	<path class="st1" d="M166.1,148.2C166.1,148.2,166.1,148.2,166.1,148.2L166.1,148.2L166.1,148.2
		C166.1,148.2,166.1,148.2,166.1,148.2z"/>
	<path class="st1" d="M168.7,125.7L168.7,125.7L168.7,125.7L168.7,125.7C168.7,125.7,168.7,125.7,168.7,125.7z"/>
	<path class="st1" d="M178.8,145.5c0.1-0.5,0.2-1.1,0.3-1.6C179,144.4,178.9,145,178.8,145.5c-0.1,0.6-0.1,1.2-0.2,1.7
		C178.7,146.7,178.7,146.1,178.8,145.5z"/>
	<path class="st1" d="M181.2,122.2L181.2,122.2c-1,0.4-2,0.8-3,1.1C179.2,123,180.2,122.6,181.2,122.2z"/>
	<path class="st1" d="M181.3,122.2C181.3,122.2,181.3,122.2,181.3,122.2L181.3,122.2L181.3,122.2z"/>
	<path class="st1" d="M188.2,131.5C188.2,131.5,188.3,131.5,188.2,131.5C188.3,131.5,188.2,131.5,188.2,131.5
		c-0.4,0.2-0.8,0.4-1.2,0.7C187.4,132,187.8,131.7,188.2,131.5z"/>
	<path class="st1" d="M193.8,166.2c0.8-0.3,1.4-0.6,2-0.9C195.2,165.6,194.5,165.9,193.8,166.2z"/>
	<path class="st1" d="M197.8,163.8c-0.3,0.5-1,1-2,1.5C196.7,164.8,197.4,164.2,197.8,163.8z"/>
	<path class="st1" d="M197.8,163.8c0.1-0.1,0.2-0.2,0.2-0.4C197.9,163.5,197.9,163.6,197.8,163.8z"/>
	<path class="st1" d="M206.8,134.4l-17.5-3c-0.1,0-0.2,0-0.3,0c0.1,0,0.2,0,0.3,0L206.8,134.4C206.8,134.4,206.8,134.4,206.8,134.4z
		"/>
	<path class="st1" d="M168.7,125.7c-0.2,0-0.5,0.1-0.7,0.1c-0.1,0-0.1,0-0.2,0c-0.5,0-1,0.1-1.5,0.1c-1,0-2.1,0-3.1-0.1
		c-0.7-0.1-1.4-0.2-2-0.3l0.7-1.9h0C164.2,124.2,166.5,124.9,168.7,125.7L168.7,125.7L168.7,125.7z"/>
	<path class="st1" d="M161.6,141c0.5,0.7,0.9,1.4,1.2,2.1l0,0C162.5,142.4,162,141.7,161.6,141C161.5,141,161.5,141,161.6,141
		c-0.1-0.1-0.1-0.2-0.2-0.2C161.4,140.8,161.5,140.9,161.6,141C161.5,140.9,161.5,141,161.6,141z"/>
	<polygon class="st1" points="165,141.8 165,141.8 162.8,143.1 	"/>
	<path class="st1" d="M166.3,140.1c0.2-0.6,0.3-1.2,0.5-1.7C166.6,138.9,166.5,139.5,166.3,140.1L166.3,140.1L166.3,140.1z"/>
	<polygon class="st1" points="173.5,127.9 173.5,127.9 173.5,127.9 173.3,127.8 	"/>
	<path id="Path_1100" class="st1" d="M206.8,134.4l-17.5-3c-0.1,0-0.2,0-0.3,0c0.1,0,0.2,0,0.3,0L206.8,134.4
		C206.8,134.4,206.8,134.4,206.8,134.4z M205.3,133.2C205.3,133.2,205.3,133.2,205.3,133.2c-0.5-0.7-1-1.3-1.5-2
		C204.3,131.8,204.8,132.5,205.3,133.2C205.3,133.2,205.3,133.2,205.3,133.2z M198,163.4c0,0.1-0.1,0.2-0.2,0.4
		C197.9,163.6,197.9,163.5,198,163.4z M196.3,163.8c-0.4,0.2-0.8,0.3-1.1,0.4C195.6,164.1,196,164,196.3,163.8
		C196.3,163.8,196.3,163.8,196.3,163.8z M195.8,165.3c0.9-0.5,1.6-1,2-1.5C197.4,164.2,196.7,164.8,195.8,165.3z M193.2,123.7
		c-0.4-0.1-0.7-0.3-1.1-0.4C192.4,123.4,192.8,123.6,193.2,123.7z M194.3,124.1L194.3,124.1c-0.4-0.2-0.7-0.3-1.1-0.4
		C193.6,123.8,193.9,124,194.3,124.1L194.3,124.1z M193.2,123.7C193.2,123.7,193.2,123.7,193.2,123.7
		C193.2,123.7,193.2,123.7,193.2,123.7z M195.8,165.3c-0.6,0.3-1.3,0.6-2,0.9C194.5,165.9,195.2,165.6,195.8,165.3z M187,132.2
		c0.4-0.2,0.8-0.5,1.2-0.7c0,0,0.1,0,0.1,0c0,0-0.1,0-0.1,0C187.8,131.7,187.4,132,187,132.2z M182,166.3c-0.4-0.1-0.8-0.1-1.2-0.2
		C181.1,166.2,181.6,166.2,182,166.3z M181.3,122.2L181.3,122.2L181.3,122.2C181.3,122.2,181.3,122.2,181.3,122.2z M181.2,122.2
		c-1,0.4-2,0.8-3,1.1C179.2,123,180.2,122.6,181.2,122.2L181.2,122.2z M178.6,147.2c0.1-0.6,0.1-1.1,0.2-1.7
		c0.1-0.5,0.2-1.1,0.3-1.6c-0.1,0.5-0.2,1.1-0.3,1.6C178.7,146.1,178.7,146.7,178.6,147.2z M177.3,164.7c0.5,0.4,1.1,0.7,1.6,0.9
		C178.4,165.4,177.8,165.1,177.3,164.7C177.3,164.7,177.3,164.7,177.3,164.7z M177,145.8c0-1.6,0.3-3.2,0.8-4.7
		C177.4,142.7,177.1,144.3,177,145.8c-0.1,1.2,0,2.3,0.2,3.5C177,148.1,177,147,177,145.8z M174.1,127.2
		C174.1,127.2,174.1,127.1,174.1,127.2c0,0-0.1,0-0.2,0.1C174,127.2,174,127.2,174.1,127.2z M168.7,125.7c0.8,0.3,1.5,0.6,2.3,1
		C170.3,126.3,169.5,126,168.7,125.7L168.7,125.7z M167.4,148.8c0.2,1.2,0.5,2.4,0.9,3.5C167.9,151.2,167.6,150,167.4,148.8
		L167.4,148.8z M167.4,148.8L167.4,148.8c-0.2-0.1-0.4-0.2-0.6-0.3C167,148.6,167.2,148.7,167.4,148.8z M166.1,148.2
		c0.2,0.1,0.4,0.2,0.6,0.3C166.5,148.4,166.3,148.3,166.1,148.2L166.1,148.2z"/>
	<path class="st1" d="M161.2,125.5c0.7,0.1,1.4,0.2,2,0.3C162.5,125.7,161.8,125.6,161.2,125.5z"/>
	<path class="st1" d="M168.8,125.7c0.8,0.3,1.5,0.6,2.3,1C170.3,126.3,169.5,126,168.8,125.7L168.8,125.7c-0.3,0-0.5,0.1-0.7,0.1
		C168.3,125.8,168.5,125.7,168.8,125.7L168.8,125.7C168.7,125.7,168.7,125.7,168.8,125.7L168.8,125.7L168.8,125.7z"/>
	<path class="st1" d="M166.1,148.2L166.1,148.2L166.1,148.2C166.1,148.2,166.1,148.2,166.1,148.2
		C166.1,148.2,166.1,148.2,166.1,148.2z"/>
	<path class="st1" d="M166.3,140.1L166.3,140.1L166.3,140.1c0.1-0.6,0.3-1.2,0.5-1.7C166.6,138.9,166.5,139.5,166.3,140.1z"/>
	<path class="st1" d="M166.1,148.2c0.2,0.1,0.4,0.2,0.6,0.3C166.5,148.4,166.3,148.3,166.1,148.2L166.1,148.2z"/>
	<path class="st1" d="M166.8,148.5c0.2,0.1,0.4,0.2,0.6,0.3v0C167.2,148.7,167,148.6,166.8,148.5z"/>
	<path class="st1" d="M169,148.5c0,0.4,0.1,0.7,0.2,1.1C169.1,149.2,169,148.8,169,148.5z"/>
	<path class="st1" d="M172.2,133.9c0.4-0.7,0.8-1.3,1.2-2C173,132.6,172.6,133.2,172.2,133.9z"/>
	<path class="st1" d="M175.7,128.9C175.7,128.9,175.8,128.9,175.7,128.9c-0.6,0.7-1.2,1.3-1.7,2c-0.2,0.3-0.4,0.6-0.7,1
		c0.2-0.3,0.4-0.6,0.7-1C174.6,130.2,175.2,129.6,175.7,128.9z"/>
	<path class="st1" d="M160.1,139.3c0.3,0.3,0.5,0.5,0.8,0.8C160.6,139.8,160.3,139.6,160.1,139.3c-0.7-0.7-1.5-1.3-2.3-1.9
		C158.6,137.9,159.4,138.6,160.1,139.3z"/>
	<path class="st1" d="M161.5,141C161.5,141,161.5,141,161.5,141c-0.1-0.1-0.1-0.2-0.2-0.2C161.4,140.8,161.5,140.9,161.5,141
		C161.5,140.9,161.5,141,161.5,141z"/>
	<path id="Path_1105" class="st1" d="M99,207.2c0.3,0.2,0.8,0.4,1.1,0.6c-2-1.3-3.5-3.4-4-5.8c-2.4-12.7-14.6-21-27.2-18.6
		c-12.7,2.4-21,14.6-18.6,27.2c2.4,12.7,14.6,21,27.2,18.6c1.9-0.3,3.7-0.9,5.4-1.7c2.5-1.2,5.4-1.1,7.9,0.1l0.3,0.2l0.1-0.1
		c-0.1-0.1-0.3-0.1-0.4-0.2L99,207.2z M74.1,222.3l-14.3-7.3l-0.9-16l13.5-8.8l14.3,7.3l0.9,16L74.1,222.3z"/>
	<path id="Path_1106" class="st1" d="M100.1,207.8c-0.3-0.2-0.8-0.4-1.1-0.6l-8.1,20.2c0.1,0.1,0.3,0.1,0.4,0.2l9.7-19.1
		C100.6,208.3,100.4,208,100.1,207.8z"/>
	<path id="Path_1107" class="st1" d="M79.2,174c2.7,1,5.2,2.2,7.6,3.8c-9.9-34.1,8.8-50.6,31-57.1C77,129.9,77.5,162.2,79.2,174z"/>
	<path id="Path_1108" class="st1" d="M47.5,181.1c2.4-2.3,5.2-4.2,8.2-5.6c10.7-52.5,62-54.8,62-54.8
		C87.9,121.3,52,141.3,47.5,181.1z"/>
	<path id="Path_1109" class="st1" d="M117.7,120.7c-42.4,4-52.7,40.6-54.9,52.3c2.6-0.6,5.3-0.8,7.9-0.7
		C71.6,159.5,78.1,128.9,117.7,120.7z"/>
</g>
</svg>
